# xmcd CD database file
#
# Track frame offsets:
#	150
#	19700
#	50003
#	93845
#	117893
#	130310
#	152373
#	178958
#	201223
#	222090
#	243025
#	266670
#	281068
#	304130
#	325618
#
# Disc length: 4681 seconds
#
# Revision: 0
# Processed by: cddbd v1.5.1PL2 Copyright (c) Steve Scherf et al.
# Submitted via: CDex 1.51
#
DISCID=ce12470f
DTITLE=島唄の風〜沖縄ベストコレクション〜 - 島唄の風〜沖縄ベストコレクション〜
DYEAR=2005
DGENRE=JPop
TTITLE0=涙そうそう 夏川りみ
TTITLE1=島唄2002　THE BOOM
TTITLE2=さとうきび畑　森山良子
TTITLE3=島人ぬ宝　BEGIN
TTITLE4=てぃんさぐぬ花　Kiroro
TTITLE5=すべての人の心に花を　喜納昌吉＆チャンプルーズ（オリジナル・ver）
TTITLE6=黄金の花　ネーネーズ（シングル・ヴァージョン）
TTITLE7=えんどうの花　川畑アキラ
TTITLE8=芭蕉布　夏川りみ
TTITLE9=我した村　新垣勉
TTITLE10=天川原ナークニー　TINGARA
TTITLE11=赤ゆら　大島保克
TTITLE12=童神　古謝美佐子
TTITLE13=ファムレウタ（ver.2003）
TTITLE14=イラヨイ月夜浜　夏川りみ
EXTD=YEAR: 2005
EXTT0=
EXTT1=
EXTT2=
EXTT3=
EXTT4=
EXTT5=
EXTT6=
EXTT7=
EXTT8=
EXTT9=
EXTT10=
EXTT11=
EXTT12=
EXTT13=
EXTT14=
PLAYORDER=
